<?xml version="1.0" standalone="no"?>
<!DOCTYPE svg PUBLIC "-//W3C//DTD SVG 20010904//EN"
 "http://www.w3.org/TR/2001/REC-SVG-20010904/DTD/svg10.dtd">
<svg version="1.0" xmlns="http://www.w3.org/2000/svg"
 width="1280.000000pt" height="712.000000pt" viewBox="0 0 1280.000000 712.000000"
 preserveAspectRatio="xMidYMid meet">
<metadata>
Created by potrace 1.15, written by Peter Selinger 2001-2017
</metadata>
<g transform="translate(0.000000,712.000000) scale(0.100000,-0.100000)"
fill="#000000" stroke="none">
<path d="M460 6915 l0 -205 200 0 200 0 0 205 0 205 -200 0 -200 0 0 -205z"/>
<path d="M920 6915 l0 -205 200 0 200 0 0 205 0 205 -200 0 -200 0 0 -205z"/>
<path d="M1840 6915 l0 -205 200 0 200 0 0 205 0 205 -200 0 -200 0 0 -205z"/>
<path d="M2292 6918 l3 -203 200 0 200 0 3 203 2 202 -205 0 -205 0 2 -202z"/>
<path d="M3672 6918 l3 -203 200 0 200 0 3 203 2 202 -205 0 -205 0 2 -202z"/>
<path d="M4130 6915 l0 -205 200 0 200 0 0 205 0 205 -200 0 -200 0 0 -205z"/>
<path d="M5050 6915 l0 -205 200 0 200 0 0 205 0 205 -200 0 -200 0 0 -205z"/>
<path d="M5970 6915 l0 -205 200 0 200 0 0 205 0 205 -200 0 -200 0 0 -205z"/>
<path d="M6430 6915 l0 -205 200 0 200 0 0 205 0 205 -200 0 -200 0 0 -205z"/>
<path d="M7802 6918 l3 -203 200 0 200 0 3 203 2 202 -205 0 -205 0 2 -202z"/>
<path d="M8722 6918 l3 -203 200 0 200 0 3 203 2 202 -205 0 -205 0 2 -202z"/>
<path d="M10102 6918 l3 -203 200 0 200 0 3 203 2 202 -205 0 -205 0 2 -202z"/>
<path d="M10560 6915 l0 -205 200 0 200 0 0 205 0 205 -200 0 -200 0 0 -205z"/>
<path d="M11480 6915 l0 -205 200 0 200 0 0 205 0 205 -200 0 -200 0 0 -205z"/>
<path d="M11940 6915 l0 -205 200 0 200 0 0 205 0 205 -200 0 -200 0 0 -205z"/>
<path d="M0 6470 l0 -200 205 0 205 0 0 200 0 200 -205 0 -205 0 0 -200z"/>
<path d="M460 6470 l0 -200 200 0 200 0 0 200 0 200 -200 0 -200 0 0 -200z"/>
<path d="M920 6470 l0 -200 200 0 200 0 0 200 0 200 -200 0 -200 0 0 -200z"/>
<path d="M1370 6470 l0 -200 205 0 205 0 0 200 0 200 -205 0 -205 0 0 -200z"/>
<path d="M1840 6470 l0 -200 200 0 200 0 0 200 0 200 -200 0 -200 0 0 -200z"/>
<path d="M2290 6470 l0 -200 205 0 205 0 0 200 0 200 -205 0 -205 0 0 -200z"/>
<path d="M3670 6470 l0 -200 205 0 205 0 0 200 0 200 -205 0 -205 0 0 -200z"/>
<path d="M4130 6470 l0 -200 200 0 200 0 0 200 0 200 -200 0 -200 0 0 -200z"/>
<path d="M5050 6470 l0 -200 200 0 200 0 0 200 0 200 -200 0 -200 0 0 -200z"/>
<path d="M5970 6470 l0 -200 200 0 200 0 0 200 0 200 -200 0 -200 0 0 -200z"/>
<path d="M6430 6470 l0 -200 200 0 200 0 0 200 0 200 -200 0 -200 0 0 -200z"/>
<path d="M7350 6470 l0 -200 200 0 200 0 0 200 0 200 -200 0 -200 0 0 -200z"/>
<path d="M7800 6470 l0 -200 205 0 205 0 0 200 0 200 -205 0 -205 0 0 -200z"/>
<path d="M8260 6470 l0 -200 205 0 205 0 0 200 0 200 -205 0 -205 0 0 -200z"/>
<path d="M8720 6470 l0 -200 205 0 205 0 0 200 0 200 -205 0 -205 0 0 -200z"/>
<path d="M9180 6470 l0 -200 205 0 205 0 0 200 0 200 -205 0 -205 0 0 -200z"/>
<path d="M10100 6470 l0 -200 205 0 205 0 0 200 0 200 -205 0 -205 0 0 -200z"/>
<path d="M11480 6470 l0 -200 200 0 200 0 0 200 0 200 -200 0 -200 0 0 -200z"/>
<path d="M11940 6470 l0 -200 200 0 200 0 0 200 0 200 -200 0 -200 0 0 -200z"/>
<path d="M12390 6470 l0 -200 205 0 205 0 0 200 0 200 -205 0 -205 0 0 -200z"/>
<path d="M460 6025 l0 -205 200 0 200 0 0 205 0 205 -200 0 -200 0 0 -205z"/>
<path d="M920 6025 l0 -205 200 0 200 0 0 205 0 205 -200 0 -200 0 0 -205z"/>
<path d="M1377 6223 c-4 -3 -7 -96 -7 -205 l0 -198 205 0 205 0 0 205 0 205
-198 0 c-109 0 -202 -3 -205 -7z"/>
<path d="M3217 6224 c-4 -4 -7 -97 -7 -206 l0 -198 203 2 202 3 0 200 0 200
-196 3 c-107 1 -198 -1 -202 -4z"/>
<path d="M3677 6224 c-4 -4 -7 -97 -7 -206 l0 -198 205 0 205 0 -2 203 -3 202
-196 3 c-107 1 -198 -1 -202 -4z"/>
<path d="M4597 6224 c-4 -4 -7 -97 -7 -206 l0 -198 205 0 205 0 -2 203 -3 202
-196 3 c-107 1 -198 -1 -202 -4z"/>
<path d="M5050 6025 l0 -205 200 0 200 0 0 205 0 205 -200 0 -200 0 0 -205z"/>
<path d="M5970 6025 l0 -205 200 0 200 0 0 205 0 205 -200 0 -200 0 0 -205z"/>
<path d="M6430 6025 l0 -205 200 0 200 0 0 205 0 205 -200 0 -200 0 0 -205z"/>
<path d="M7350 6025 l0 -205 200 0 200 0 0 205 0 205 -200 0 -200 0 0 -205z"/>
<path d="M8267 6224 c-4 -4 -7 -97 -7 -206 l0 -198 205 0 205 0 -2 203 -3 202
-196 3 c-107 1 -198 -1 -202 -4z"/>
<path d="M8720 6025 l0 -205 205 0 205 0 -2 203 -3 202 -202 3 -203 2 0 -205z"/>
<path d="M9187 6224 c-4 -4 -7 -97 -7 -206 l0 -198 205 0 205 0 -2 203 -3 202
-196 3 c-107 1 -198 -1 -202 -4z"/>
<path d="M10107 6224 c-4 -4 -7 -97 -7 -206 l0 -198 205 0 205 0 -2 203 -3
202 -196 3 c-107 1 -198 -1 -202 -4z"/>
<path d="M10560 6025 l0 -205 200 0 200 0 0 205 0 205 -200 0 -200 0 0 -205z"/>
<path d="M11480 6025 l0 -205 200 0 200 0 0 205 0 205 -200 0 -200 0 0 -205z"/>
<path d="M12397 6223 c-4 -3 -7 -96 -7 -205 l0 -198 205 0 205 0 0 205 0 205
-198 0 c-109 0 -202 -3 -205 -7z"/>
<path d="M0 5575 l0 -205 203 2 202 3 0 200 0 200 -202 3 -203 2 0 -205z"/>
<path d="M460 5575 l0 -205 200 0 200 0 0 205 0 205 -200 0 -200 0 0 -205z"/>
<path d="M920 5575 l0 -205 200 0 200 0 0 205 0 205 -200 0 -200 0 0 -205z"/>
<path d="M1374 5767 c-2 -7 -3 -98 -2 -202 l3 -190 203 -3 202 -2 0 205 0 205
-200 0 c-154 0 -202 -3 -206 -13z"/>
<path d="M1840 5575 l0 -205 200 0 200 0 0 205 0 205 -200 0 -200 0 0 -205z"/>
<path d="M2290 5575 l0 -205 203 2 202 3 3 203 2 202 -205 0 -205 0 0 -205z"/>
<path d="M2754 5767 c-2 -7 -3 -98 -2 -202 l3 -190 203 -3 202 -2 0 205 0 205
-200 0 c-154 0 -202 -3 -206 -13z"/>
<path d="M3210 5575 l0 -205 203 2 202 3 0 200 0 200 -202 3 -203 2 0 -205z"/>
<path d="M3672 5578 l3 -203 203 -3 202 -2 0 205 0 205 -205 0 -205 0 2 -202z"/>
<path d="M4590 5575 l0 -205 203 2 202 3 0 200 0 200 -202 3 -203 2 0 -205z"/>
<path d="M5050 5575 l0 -205 200 0 200 0 0 205 0 205 -200 0 -200 0 0 -205z"/>
<path d="M5510 5575 l0 -205 203 2 202 3 0 200 0 200 -202 3 -203 2 0 -205z"/>
<path d="M6430 5575 l0 -205 200 0 200 0 0 205 0 205 -200 0 -200 0 0 -205z"/>
<path d="M6884 5767 c-2 -7 -3 -98 -2 -202 l3 -190 203 -3 202 -2 0 205 0 205
-200 0 c-154 0 -202 -3 -206 -13z"/>
<path d="M7350 5575 l0 -205 200 0 200 0 0 205 0 205 -200 0 -200 0 0 -205z"/>
<path d="M7800 5575 l0 -205 203 2 202 3 3 203 2 202 -205 0 -205 0 0 -205z"/>
<path d="M8264 5767 c-2 -7 -3 -98 -2 -202 l3 -190 203 -3 202 -2 0 205 0 205
-200 0 c-154 0 -202 -3 -206 -13z"/>
<path d="M8720 5575 l0 -205 203 2 202 3 0 200 0 200 -202 3 -203 2 0 -205z"/>
<path d="M9182 5578 l3 -203 203 -3 202 -2 0 205 0 205 -205 0 -205 0 2 -202z"/>
<path d="M9640 5575 l0 -205 200 0 200 0 0 205 0 205 -200 0 -200 0 0 -205z"/>
<path d="M10100 5575 l0 -205 203 2 202 3 3 203 2 202 -205 0 -205 0 0 -205z"/>
<path d="M10560 5575 l0 -205 200 0 200 0 0 205 0 205 -200 0 -200 0 0 -205z"/>
<path d="M11020 5575 l0 -205 203 2 202 3 0 200 0 200 -202 3 -203 2 0 -205z"/>
<path d="M11480 5575 l0 -205 200 0 200 0 0 205 0 205 -200 0 -200 0 0 -205z"/>
<path d="M11940 5575 l0 -205 200 0 200 0 0 205 0 205 -200 0 -200 0 0 -205z"/>
<path d="M12394 5767 c-2 -7 -3 -98 -2 -202 l3 -190 203 -3 202 -2 0 205 0
205 -200 0 c-154 0 -202 -3 -206 -13z"/>
<path d="M0 5130 l0 -200 205 0 205 0 0 200 0 200 -205 0 -205 0 0 -200z"/>
<path d="M460 5130 l0 -200 200 0 200 0 0 200 0 200 -200 0 -200 0 0 -200z"/>
<path d="M920 5130 l0 -200 200 0 200 0 0 200 0 200 -200 0 -200 0 0 -200z"/>
<path d="M1370 5130 l0 -200 205 0 205 0 0 200 0 200 -205 0 -205 0 0 -200z"/>
<path d="M1840 5130 l0 -200 200 0 200 0 0 200 0 200 -200 0 -200 0 0 -200z"/>
<path d="M2290 5130 l0 -200 205 0 205 0 0 200 0 200 -205 0 -205 0 0 -200z"/>
<path d="M2750 5130 l0 -200 205 0 205 0 0 200 0 200 -205 0 -205 0 0 -200z"/>
<path d="M3210 5130 l0 -200 205 0 205 0 -2 198 -3 197 -202 3 -203 2 0 -200z"/>
<path d="M3670 5130 l0 -200 205 0 205 0 0 200 0 200 -205 0 -205 0 0 -200z"/>
<path d="M4590 5130 l0 -200 205 0 205 0 0 200 0 200 -205 0 -205 0 0 -200z"/>
<path d="M5510 5130 l0 -200 205 0 205 0 -2 198 -3 197 -202 3 -203 2 0 -200z"/>
<path d="M5970 5130 l0 -200 200 0 200 0 0 200 0 200 -200 0 -200 0 0 -200z"/>
<path d="M6887 5323 c-4 -3 -7 -93 -7 -200 l0 -193 205 0 205 0 0 200 0 200
-198 0 c-109 0 -202 -3 -205 -7z"/>
<path d="M7800 5130 l0 -200 205 0 205 0 0 200 0 200 -205 0 -205 0 0 -200z"/>
<path d="M8260 5130 l0 -200 205 0 205 0 0 200 0 200 -205 0 -205 0 0 -200z"/>
<path d="M9180 5130 l0 -200 205 0 205 0 0 200 0 200 -205 0 -205 0 0 -200z"/>
<path d="M10100 5130 l0 -200 205 0 205 0 0 200 0 200 -205 0 -205 0 0 -200z"/>
<path d="M10560 5130 l0 -200 200 0 200 0 0 200 0 200 -200 0 -200 0 0 -200z"/>
<path d="M11020 5130 l0 -200 205 0 205 0 0 200 0 200 -205 0 -205 0 0 -200z"/>
<path d="M11480 5130 l0 -200 200 0 200 0 0 200 0 200 -200 0 -200 0 0 -200z"/>
<path d="M12390 5130 l0 -200 205 0 205 0 0 200 0 200 -205 0 -205 0 0 -200z"/>
<path d="M0 4680 l0 -200 205 0 205 0 0 200 0 200 -205 0 -205 0 0 -200z"/>
<path d="M460 4680 l0 -200 200 0 200 0 0 200 0 200 -200 0 -200 0 0 -200z"/>
<path d="M920 4680 l0 -200 200 0 200 0 0 200 0 200 -200 0 -200 0 0 -200z"/>
<path d="M1370 4680 l0 -200 205 0 205 0 0 200 0 200 -205 0 -205 0 0 -200z"/>
<path d="M1840 4680 l0 -200 200 0 200 0 0 200 0 200 -200 0 -200 0 0 -200z"/>
<path d="M2290 4680 l0 -200 205 0 205 0 0 200 0 200 -205 0 -205 0 0 -200z"/>
<path d="M2750 4680 l0 -200 205 0 205 0 0 200 0 200 -205 0 -205 0 0 -200z"/>
<path d="M3210 4680 l0 -200 205 0 205 0 0 200 0 200 -205 0 -205 0 0 -200z"/>
<path d="M4130 4680 l0 -200 200 0 200 0 0 200 0 200 -200 0 -200 0 0 -200z"/>
<path d="M4590 4680 l0 -200 205 0 205 0 0 200 0 200 -205 0 -205 0 0 -200z"/>
<path d="M5510 4680 l0 -200 205 0 205 0 0 200 0 200 -205 0 -205 0 0 -200z"/>
<path d="M5970 4680 l0 -200 200 0 200 0 0 200 0 200 -200 0 -200 0 0 -200z"/>
<path d="M6430 4680 l0 -200 200 0 200 0 0 200 0 200 -200 0 -200 0 0 -200z"/>
<path d="M6880 4680 l0 -200 205 0 205 0 0 200 0 200 -205 0 -205 0 0 -200z"/>
<path d="M7350 4680 l0 -200 200 0 200 0 0 200 0 200 -200 0 -200 0 0 -200z"/>
<path d="M7800 4680 l0 -200 205 0 205 0 0 200 0 200 -205 0 -205 0 0 -200z"/>
<path d="M8260 4680 l0 -200 205 0 205 0 0 200 0 200 -205 0 -205 0 0 -200z"/>
<path d="M8720 4680 l0 -200 205 0 205 0 0 200 0 200 -205 0 -205 0 0 -200z"/>
<path d="M9180 4680 l0 -200 205 0 205 0 0 200 0 200 -205 0 -205 0 0 -200z"/>
<path d="M9640 4680 l0 -200 200 0 200 0 0 200 0 200 -200 0 -200 0 0 -200z"/>
<path d="M10100 4680 l0 -200 205 0 205 0 0 200 0 200 -205 0 -205 0 0 -200z"/>
<path d="M10560 4680 l0 -200 200 0 200 0 0 200 0 200 -200 0 -200 0 0 -200z"/>
<path d="M11020 4680 l0 -200 205 0 205 0 0 200 0 200 -205 0 -205 0 0 -200z"/>
<path d="M11480 4680 l0 -200 200 0 200 0 0 200 0 200 -200 0 -200 0 0 -200z"/>
<path d="M11940 4680 l0 -200 200 0 200 0 0 200 0 200 -200 0 -200 0 0 -200z"/>
<path d="M0 4230 l0 -200 205 0 205 0 0 200 0 200 -205 0 -205 0 0 -200z"/>
<path d="M920 4230 l0 -200 200 0 200 0 0 200 0 200 -200 0 -200 0 0 -200z"/>
<path d="M1370 4230 l0 -200 205 0 205 0 0 200 0 200 -205 0 -205 0 0 -200z"/>
<path d="M1840 4230 l0 -200 200 0 200 0 0 200 0 200 -200 0 -200 0 0 -200z"/>
<path d="M2750 4230 l0 -200 205 0 205 0 0 200 0 200 -205 0 -205 0 0 -200z"/>
<path d="M3210 4230 l0 -200 203 2 202 3 3 198 2 197 -205 0 -205 0 0 -200z"/>
<path d="M3670 4230 l0 -200 205 0 205 0 0 200 0 200 -205 0 -205 0 0 -200z"/>
<path d="M4130 4230 l0 -200 200 0 200 0 0 200 0 200 -200 0 -200 0 0 -200z"/>
<path d="M4590 4230 l0 -200 205 0 205 0 0 200 0 200 -205 0 -205 0 0 -200z"/>
<path d="M5510 4230 l0 -200 203 2 202 3 3 198 2 197 -205 0 -205 0 0 -200z"/>
<path d="M5970 4230 l0 -200 200 0 200 0 0 200 0 200 -200 0 -200 0 0 -200z"/>
<path d="M6430 4230 l0 -200 200 0 200 0 0 200 0 200 -200 0 -200 0 0 -200z"/>
<path d="M6882 4233 l3 -198 203 -3 202 -2 0 200 0 200 -205 0 -205 0 2 -197z"/>
<path d="M7350 4230 l0 -200 200 0 200 0 0 200 0 200 -200 0 -200 0 0 -200z"/>
<path d="M8260 4230 l0 -200 205 0 205 0 0 200 0 200 -205 0 -205 0 0 -200z"/>
<path d="M8720 4230 l0 -200 205 0 205 0 0 200 0 200 -205 0 -205 0 0 -200z"/>
<path d="M10100 4230 l0 -200 205 0 205 0 0 200 0 200 -205 0 -205 0 0 -200z"/>
<path d="M10560 4230 l0 -200 200 0 200 0 0 200 0 200 -200 0 -200 0 0 -200z"/>
<path d="M11020 4230 l0 -200 205 0 205 0 0 200 0 200 -205 0 -205 0 0 -200z"/>
<path d="M11940 4230 l0 -200 200 0 200 0 0 200 0 200 -200 0 -200 0 0 -200z"/>
<path d="M12390 4230 l0 -200 205 0 205 0 0 200 0 200 -205 0 -205 0 0 -200z"/>
<path d="M460 3785 l0 -205 200 0 200 0 0 205 0 205 -200 0 -200 0 0 -205z"/>
<path d="M920 3785 l0 -205 200 0 200 0 0 205 0 205 -200 0 -200 0 0 -205z"/>
<path d="M1374 3977 c-2 -7 -3 -98 -2 -202 l3 -190 203 -3 202 -2 0 205 0 205
-200 0 c-154 0 -202 -3 -206 -13z"/>
<path d="M1840 3785 l0 -205 200 0 200 0 0 205 0 205 -200 0 -200 0 0 -205z"/>
<path d="M2754 3977 c-2 -7 -3 -98 -2 -202 l3 -190 203 -3 202 -2 0 205 0 205
-200 0 c-154 0 -202 -3 -206 -13z"/>
<path d="M3210 3785 l0 -205 203 2 202 3 0 200 0 200 -202 3 -203 2 0 -205z"/>
<path d="M3677 3983 c-4 -3 -7 -96 -7 -205 l0 -198 205 0 205 0 0 205 0 205
-198 0 c-109 0 -202 -3 -205 -7z"/>
<path d="M4590 3785 l0 -205 203 2 202 3 0 200 0 200 -202 3 -203 2 0 -205z"/>
<path d="M5510 3785 l0 -205 203 2 202 3 0 200 0 200 -202 3 -203 2 0 -205z"/>
<path d="M5970 3785 l0 -205 200 0 200 0 0 205 0 205 -200 0 -200 0 0 -205z"/>
<path d="M6884 3977 c-2 -7 -3 -98 -2 -202 l3 -190 203 -3 202 -2 0 205 0 205
-200 0 c-154 0 -202 -3 -206 -13z"/>
<path d="M7800 3785 l0 -205 205 0 205 0 -2 203 -3 202 -202 3 -203 2 0 -205z"/>
<path d="M8264 3977 c-2 -7 -3 -98 -2 -202 l3 -190 203 -3 202 -2 0 205 0 205
-200 0 c-154 0 -202 -3 -206 -13z"/>
<path d="M8720 3785 l0 -205 203 2 202 3 0 200 0 200 -202 3 -203 2 0 -205z"/>
<path d="M9187 3983 c-4 -3 -7 -96 -7 -205 l0 -198 205 0 205 0 0 205 0 205
-198 0 c-109 0 -202 -3 -205 -7z"/>
<path d="M9640 3785 l0 -205 200 0 200 0 0 205 0 205 -200 0 -200 0 0 -205z"/>
<path d="M10100 3785 l0 -205 205 0 205 0 -2 203 -3 202 -202 3 -203 2 0 -205z"/>
<path d="M10560 3785 l0 -205 200 0 200 0 0 205 0 205 -200 0 -200 0 0 -205z"/>
<path d="M11020 3785 l0 -205 203 2 202 3 0 200 0 200 -202 3 -203 2 0 -205z"/>
<path d="M11480 3785 l0 -205 200 0 200 0 0 205 0 205 -200 0 -200 0 0 -205z"/>
<path d="M11940 3785 l0 -205 200 0 200 0 0 205 0 205 -200 0 -200 0 0 -205z"/>
<path d="M12394 3977 c-2 -7 -3 -98 -2 -202 l3 -190 203 -3 202 -2 0 205 0
205 -200 0 c-154 0 -202 -3 -206 -13z"/>
<path d="M0 3335 l0 -205 203 2 202 3 3 203 2 202 -205 0 -205 0 0 -205z"/>
<path d="M460 3335 l0 -205 200 0 200 0 0 205 0 205 -200 0 -200 0 0 -205z"/>
<path d="M920 3335 l0 -205 200 0 200 0 0 205 0 205 -200 0 -200 0 0 -205z"/>
<path d="M1840 3335 l0 -205 200 0 200 0 0 205 0 205 -200 0 -200 0 0 -205z"/>
<path d="M2292 3338 l3 -203 200 0 200 0 3 203 2 202 -205 0 -205 0 2 -202z"/>
<path d="M2752 3338 l3 -203 203 -3 202 -2 0 205 0 205 -205 0 -205 0 2 -202z"/>
<path d="M3212 3338 l3 -203 200 0 200 0 0 200 0 200 -203 3 -202 2 2 -202z"/>
<path d="M3672 3338 l3 -203 200 0 200 0 3 203 2 202 -205 0 -205 0 2 -202z"/>
<path d="M4130 3335 l0 -205 200 0 200 0 0 205 0 205 -200 0 -200 0 0 -205z"/>
<path d="M4592 3338 l3 -203 200 0 200 0 3 203 2 202 -205 0 -205 0 2 -202z"/>
<path d="M5050 3335 l0 -205 200 0 200 0 0 205 0 205 -200 0 -200 0 0 -205z"/>
<path d="M5512 3338 l3 -203 200 0 200 0 0 200 0 200 -203 3 -202 2 2 -202z"/>
<path d="M5970 3335 l0 -205 200 0 200 0 0 205 0 205 -200 0 -200 0 0 -205z"/>
<path d="M6430 3335 l0 -205 200 0 200 0 0 205 0 205 -200 0 -200 0 0 -205z"/>
<path d="M6884 3527 c-2 -7 -3 -98 -2 -202 l3 -190 200 0 200 0 3 203 2 202
-200 0 c-154 0 -202 -3 -206 -13z"/>
<path d="M7350 3335 l0 -205 200 0 200 0 0 205 0 205 -200 0 -200 0 0 -205z"/>
<path d="M7802 3338 l3 -203 200 0 200 0 3 203 2 202 -205 0 -205 0 2 -202z"/>
<path d="M8262 3338 l3 -203 200 0 200 0 3 203 2 202 -205 0 -205 0 2 -202z"/>
<path d="M8720 3335 l0 -205 203 2 202 3 3 203 2 202 -205 0 -205 0 0 -205z"/>
<path d="M9640 3335 l0 -205 200 0 200 0 0 205 0 205 -200 0 -200 0 0 -205z"/>
<path d="M10102 3338 l3 -203 200 0 200 0 3 203 2 202 -205 0 -205 0 2 -202z"/>
<path d="M10560 3335 l0 -205 200 0 200 0 0 205 0 205 -200 0 -200 0 0 -205z"/>
<path d="M11020 3335 l0 -205 203 2 202 3 3 203 2 202 -205 0 -205 0 0 -205z"/>
<path d="M11480 3335 l0 -205 200 0 200 0 0 205 0 205 -200 0 -200 0 0 -205z"/>
<path d="M11940 3335 l0 -205 200 0 200 0 0 205 0 205 -200 0 -200 0 0 -205z"/>
<path d="M12392 3338 l3 -203 203 -3 202 -2 0 205 0 205 -205 0 -205 0 2 -202z"/>
<path d="M0 2890 l0 -200 205 0 205 0 0 200 0 200 -205 0 -205 0 0 -200z"/>
<path d="M460 2890 l0 -200 200 0 200 0 0 200 0 200 -200 0 -200 0 0 -200z"/>
<path d="M920 2890 l0 -200 200 0 200 0 0 200 0 200 -200 0 -200 0 0 -200z"/>
<path d="M1370 2890 l0 -200 205 0 205 0 0 200 0 200 -205 0 -205 0 0 -200z"/>
<path d="M1840 2890 l0 -200 200 0 200 0 0 200 0 200 -200 0 -200 0 0 -200z"/>
<path d="M2290 2890 l0 -200 205 0 205 0 0 200 0 200 -205 0 -205 0 0 -200z"/>
<path d="M2750 2890 l0 -200 205 0 205 0 0 200 0 200 -205 0 -205 0 0 -200z"/>
<path d="M3210 2890 l0 -200 205 0 205 0 0 200 0 200 -205 0 -205 0 0 -200z"/>
<path d="M3670 2890 l0 -200 205 0 205 0 0 200 0 200 -205 0 -205 0 0 -200z"/>
<path d="M4130 2890 l0 -200 200 0 200 0 0 200 0 200 -200 0 -200 0 0 -200z"/>
<path d="M4590 2890 l0 -200 205 0 205 0 0 200 0 200 -205 0 -205 0 0 -200z"/>
<path d="M5050 2890 l0 -200 200 0 200 0 0 200 0 200 -200 0 -200 0 0 -200z"/>
<path d="M5510 2890 l0 -200 205 0 205 0 0 200 0 200 -205 0 -205 0 0 -200z"/>
<path d="M5970 2890 l0 -200 200 0 200 0 0 200 0 200 -200 0 -200 0 0 -200z"/>
<path d="M6430 2890 l0 -200 200 0 200 0 0 200 0 200 -200 0 -200 0 0 -200z"/>
<path d="M6880 2890 l0 -200 205 0 205 0 0 200 0 200 -205 0 -205 0 0 -200z"/>
<path d="M7350 2890 l0 -200 200 0 200 0 0 200 0 200 -200 0 -200 0 0 -200z"/>
<path d="M7800 2890 l0 -200 205 0 205 0 0 200 0 200 -205 0 -205 0 0 -200z"/>
<path d="M8260 2890 l0 -200 205 0 205 0 0 200 0 200 -205 0 -205 0 0 -200z"/>
<path d="M8720 2890 l0 -200 205 0 205 0 0 200 0 200 -205 0 -205 0 0 -200z"/>
<path d="M9180 2890 l0 -200 205 0 205 0 0 200 0 200 -205 0 -205 0 0 -200z"/>
<path d="M10100 2890 l0 -200 205 0 205 0 0 200 0 200 -205 0 -205 0 0 -200z"/>
<path d="M10560 2890 l0 -200 200 0 200 0 0 200 0 200 -200 0 -200 0 0 -200z"/>
<path d="M11480 2890 l0 -200 200 0 200 0 0 200 0 200 -200 0 -200 0 0 -200z"/>
<path d="M11940 2890 l0 -200 200 0 200 0 0 200 0 200 -200 0 -200 0 0 -200z"/>
<path d="M12390 2890 l0 -200 205 0 205 0 0 200 0 200 -205 0 -205 0 0 -200z"/>
<path d="M0 2440 l0 -200 205 0 205 0 0 200 0 200 -205 0 -205 0 0 -200z"/>
<path d="M460 2440 l0 -200 200 0 200 0 0 200 0 200 -200 0 -200 0 0 -200z"/>
<path d="M920 2440 l0 -200 200 0 200 0 0 200 0 200 -200 0 -200 0 0 -200z"/>
<path d="M1840 2440 l0 -200 200 0 200 0 0 200 0 200 -200 0 -200 0 0 -200z"/>
<path d="M2290 2440 l0 -200 205 0 205 0 0 200 0 200 -205 0 -205 0 0 -200z"/>
<path d="M2750 2440 l0 -200 205 0 205 0 0 200 0 200 -205 0 -205 0 0 -200z"/>
<path d="M3210 2440 l0 -200 205 0 205 0 0 200 0 200 -205 0 -205 0 0 -200z"/>
<path d="M3670 2440 l0 -200 205 0 205 0 0 200 0 200 -205 0 -205 0 0 -200z"/>
<path d="M4130 2440 l0 -200 200 0 200 0 0 200 0 200 -200 0 -200 0 0 -200z"/>
<path d="M4590 2440 l0 -200 205 0 205 0 0 200 0 200 -205 0 -205 0 0 -200z"/>
<path d="M5050 2440 l0 -200 200 0 200 0 0 200 0 200 -200 0 -200 0 0 -200z"/>
<path d="M5510 2440 l0 -200 205 0 205 0 0 200 0 200 -205 0 -205 0 0 -200z"/>
<path d="M5970 2440 l0 -200 200 0 200 0 0 200 0 200 -200 0 -200 0 0 -200z"/>
<path d="M6430 2440 l0 -200 200 0 200 0 0 200 0 200 -200 0 -200 0 0 -200z"/>
<path d="M6880 2440 l0 -200 205 0 205 0 0 200 0 200 -205 0 -205 0 0 -200z"/>
<path d="M7350 2440 l0 -200 200 0 200 0 0 200 0 200 -200 0 -200 0 0 -200z"/>
<path d="M7800 2440 l0 -200 205 0 205 0 0 200 0 200 -205 0 -205 0 0 -200z"/>
<path d="M8720 2440 l0 -200 205 0 205 0 0 200 0 200 -205 0 -205 0 0 -200z"/>
<path d="M9180 2440 l0 -200 205 0 205 0 0 200 0 200 -205 0 -205 0 0 -200z"/>
<path d="M9640 2440 l0 -200 200 0 200 0 0 200 0 200 -200 0 -200 0 0 -200z"/>
<path d="M10100 2440 l0 -200 205 0 205 0 0 200 0 200 -205 0 -205 0 0 -200z"/>
<path d="M10560 2440 l0 -200 200 0 200 0 0 200 0 200 -200 0 -200 0 0 -200z"/>
<path d="M11480 2440 l0 -200 200 0 200 0 0 200 0 200 -200 0 -200 0 0 -200z"/>
<path d="M11940 2440 l0 -200 200 0 200 0 0 200 0 200 -200 0 -200 0 0 -200z"/>
<path d="M12390 2440 l0 -200 205 0 205 0 0 200 0 200 -205 0 -205 0 0 -200z"/>
<path d="M0 1995 l0 -205 203 2 202 3 0 200 0 200 -202 3 -203 2 0 -205z"/>
<path d="M460 1995 l0 -205 200 0 200 0 0 205 0 205 -200 0 -200 0 0 -205z"/>
<path d="M920 1995 l0 -205 200 0 200 0 0 205 0 205 -200 0 -200 0 0 -205z"/>
<path d="M1374 2187 c-2 -7 -3 -98 -2 -202 l3 -190 203 -3 202 -2 0 205 0 205
-200 0 c-154 0 -202 -3 -206 -13z"/>
<path d="M1840 1995 l0 -205 200 0 200 0 0 205 0 205 -200 0 -200 0 0 -205z"/>
<path d="M2297 2194 c-4 -4 -7 -97 -7 -206 l0 -198 205 0 205 0 -2 203 -3 202
-196 3 c-107 1 -198 -1 -202 -4z"/>
<path d="M3210 1995 l0 -205 203 2 202 3 0 200 0 200 -202 3 -203 2 0 -205z"/>
<path d="M3677 2194 c-4 -4 -7 -97 -7 -206 l0 -198 205 0 205 0 -2 203 -3 202
-196 3 c-107 1 -198 -1 -202 -4z"/>
<path d="M4130 1995 l0 -205 200 0 200 0 0 205 0 205 -200 0 -200 0 0 -205z"/>
<path d="M4597 2194 c-4 -4 -7 -97 -7 -206 l0 -198 205 0 205 0 -2 203 -3 202
-196 3 c-107 1 -198 -1 -202 -4z"/>
<path d="M5050 1995 l0 -205 200 0 200 0 0 205 0 205 -200 0 -200 0 0 -205z"/>
<path d="M5970 1995 l0 -205 200 0 200 0 0 205 0 205 -200 0 -200 0 0 -205z"/>
<path d="M6430 1995 l0 -205 200 0 200 0 0 205 0 205 -200 0 -200 0 0 -205z"/>
<path d="M6884 2187 c-2 -7 -3 -98 -2 -202 l3 -190 203 -3 202 -2 0 205 0 205
-200 0 c-154 0 -202 -3 -206 -13z"/>
<path d="M7807 2194 c-4 -4 -7 -97 -7 -206 l0 -198 205 0 205 0 -2 203 -3 202
-196 3 c-107 1 -198 -1 -202 -4z"/>
<path d="M8264 2187 c-2 -7 -3 -98 -2 -202 l3 -190 203 -3 202 -2 0 205 0 205
-200 0 c-154 0 -202 -3 -206 -13z"/>
<path d="M8720 1995 l0 -205 203 2 202 3 0 200 0 200 -202 3 -203 2 0 -205z"/>
<path d="M9187 2194 c-4 -4 -7 -97 -7 -206 l0 -198 205 0 205 0 -2 203 -3 202
-196 3 c-107 1 -198 -1 -202 -4z"/>
<path d="M9640 1995 l0 -205 200 0 200 0 0 205 0 205 -200 0 -200 0 0 -205z"/>
<path d="M10107 2194 c-4 -4 -7 -97 -7 -206 l0 -198 205 0 205 0 -2 203 -3
202 -196 3 c-107 1 -198 -1 -202 -4z"/>
<path d="M10560 1995 l0 -205 200 0 200 0 0 205 0 205 -200 0 -200 0 0 -205z"/>
<path d="M11020 1995 l0 -205 203 2 202 3 0 200 0 200 -202 3 -203 2 0 -205z"/>
<path d="M11480 1995 l0 -205 200 0 200 0 0 205 0 205 -200 0 -200 0 0 -205z"/>
<path d="M11940 1995 l0 -205 200 0 200 0 0 205 0 205 -200 0 -200 0 0 -205z"/>
<path d="M12394 2187 c-2 -7 -3 -98 -2 -202 l3 -190 203 -3 202 -2 0 205 0
205 -200 0 c-154 0 -202 -3 -206 -13z"/>
<path d="M460 1545 l0 -205 200 0 200 0 0 205 0 205 -200 0 -200 0 0 -205z"/>
<path d="M920 1545 l0 -205 200 0 200 0 0 205 0 205 -200 0 -200 0 0 -205z"/>
<path d="M1374 1737 c-2 -7 -3 -98 -2 -202 l3 -190 203 -3 202 -2 0 205 0 205
-200 0 c-154 0 -202 -3 -206 -13z"/>
<path d="M1840 1545 l0 -205 200 0 200 0 0 205 0 205 -200 0 -200 0 0 -205z"/>
<path d="M2292 1548 l3 -203 200 0 200 0 3 203 2 202 -205 0 -205 0 2 -202z"/>
<path d="M2754 1737 c-2 -7 -3 -98 -2 -202 l3 -190 203 -3 202 -2 0 205 0 205
-200 0 c-154 0 -202 -3 -206 -13z"/>
<path d="M3210 1545 l0 -205 203 2 202 3 0 200 0 200 -202 3 -203 2 0 -205z"/>
<path d="M3672 1548 l3 -203 200 0 200 0 3 203 2 202 -205 0 -205 0 2 -202z"/>
<path d="M4130 1545 l0 -205 200 0 200 0 0 205 0 205 -200 0 -200 0 0 -205z"/>
<path d="M4592 1548 l3 -203 200 0 200 0 3 203 2 202 -205 0 -205 0 2 -202z"/>
<path d="M5050 1545 l0 -205 200 0 200 0 0 205 0 205 -200 0 -200 0 0 -205z"/>
<path d="M5970 1545 l0 -205 200 0 200 0 0 205 0 205 -200 0 -200 0 0 -205z"/>
<path d="M6430 1545 l0 -205 200 0 200 0 0 205 0 205 -200 0 -200 0 0 -205z"/>
<path d="M6884 1737 c-2 -7 -3 -98 -2 -202 l3 -190 203 -3 202 -2 0 205 0 205
-200 0 c-154 0 -202 -3 -206 -13z"/>
<path d="M7350 1545 l0 -205 200 0 200 0 0 205 0 205 -200 0 -200 0 0 -205z"/>
<path d="M7802 1548 l3 -203 200 0 200 0 3 203 2 202 -205 0 -205 0 2 -202z"/>
<path d="M8264 1737 c-2 -7 -3 -98 -2 -202 l3 -190 203 -3 202 -2 0 205 0 205
-200 0 c-154 0 -202 -3 -206 -13z"/>
<path d="M9182 1548 l3 -203 200 0 200 0 3 203 2 202 -205 0 -205 0 2 -202z"/>
<path d="M9640 1545 l0 -205 200 0 200 0 0 205 0 205 -200 0 -200 0 0 -205z"/>
<path d="M10102 1548 l3 -203 200 0 200 0 3 203 2 202 -205 0 -205 0 2 -202z"/>
<path d="M10560 1545 l0 -205 200 0 200 0 0 205 0 205 -200 0 -200 0 0 -205z"/>
<path d="M11020 1545 l0 -205 203 2 202 3 0 200 0 200 -202 3 -203 2 0 -205z"/>
<path d="M11480 1545 l0 -205 200 0 200 0 0 205 0 205 -200 0 -200 0 0 -205z"/>
<path d="M11940 1545 l0 -205 200 0 200 0 0 205 0 205 -200 0 -200 0 0 -205z"/>
<path d="M12394 1737 c-2 -7 -3 -98 -2 -202 l3 -190 203 -3 202 -2 0 205 0
205 -200 0 c-154 0 -202 -3 -206 -13z"/>
<path d="M0 1100 l0 -200 205 0 205 0 0 200 0 200 -205 0 -205 0 0 -200z"/>
<path d="M460 1100 l0 -200 200 0 200 0 0 200 0 200 -200 0 -200 0 0 -200z"/>
<path d="M920 1100 l0 -200 200 0 200 0 0 200 0 200 -200 0 -200 0 0 -200z"/>
<path d="M1370 1100 l0 -200 205 0 205 0 0 200 0 200 -205 0 -205 0 0 -200z"/>
<path d="M2290 1100 l0 -200 205 0 205 0 0 200 0 200 -205 0 -205 0 0 -200z"/>
<path d="M2750 1100 l0 -200 205 0 205 0 0 200 0 200 -205 0 -205 0 0 -200z"/>
<path d="M3210 1100 l0 -200 205 0 205 0 0 200 0 200 -205 0 -205 0 0 -200z"/>
<path d="M4130 1100 l0 -200 200 0 200 0 0 200 0 200 -200 0 -200 0 0 -200z"/>
<path d="M4590 1100 l0 -200 205 0 205 0 0 200 0 200 -205 0 -205 0 0 -200z"/>
<path d="M5050 1100 l0 -200 200 0 200 0 0 200 0 200 -200 0 -200 0 0 -200z"/>
<path d="M5510 1100 l0 -200 205 0 205 0 0 200 0 200 -205 0 -205 0 0 -200z"/>
<path d="M5970 1100 l0 -200 200 0 200 0 0 200 0 200 -200 0 -200 0 0 -200z"/>
<path d="M6430 1100 l0 -200 200 0 200 0 0 200 0 200 -200 0 -200 0 0 -200z"/>
<path d="M6880 1100 l0 -200 205 0 205 0 0 200 0 200 -205 0 -205 0 0 -200z"/>
<path d="M7350 1100 l0 -200 200 0 200 0 0 200 0 200 -200 0 -200 0 0 -200z"/>
<path d="M7800 1100 l0 -200 205 0 205 0 0 200 0 200 -205 0 -205 0 0 -200z"/>
<path d="M8260 1100 l0 -200 205 0 205 0 0 200 0 200 -205 0 -205 0 0 -200z"/>
<path d="M8720 1100 l0 -200 205 0 205 0 0 200 0 200 -205 0 -205 0 0 -200z"/>
<path d="M9180 1100 l0 -200 205 0 205 0 0 200 0 200 -205 0 -205 0 0 -200z"/>
<path d="M9640 1100 l0 -200 200 0 200 0 0 200 0 200 -200 0 -200 0 0 -200z"/>
<path d="M10100 1100 l0 -200 205 0 205 0 0 200 0 200 -205 0 -205 0 0 -200z"/>
<path d="M11020 1100 l0 -200 205 0 205 0 0 200 0 200 -205 0 -205 0 0 -200z"/>
<path d="M11480 1100 l0 -200 200 0 200 0 0 200 0 200 -200 0 -200 0 0 -200z"/>
<path d="M11940 1100 l0 -200 200 0 200 0 0 200 0 200 -200 0 -200 0 0 -200z"/>
<path d="M12390 1100 l0 -200 205 0 205 0 0 200 0 200 -205 0 -205 0 0 -200z"/>
<path d="M0 650 l0 -200 205 0 205 0 0 200 0 200 -205 0 -205 0 0 -200z"/>
<path d="M460 650 l0 -200 200 0 200 0 0 200 0 200 -200 0 -200 0 0 -200z"/>
<path d="M920 650 l0 -200 200 0 200 0 0 200 0 200 -200 0 -200 0 0 -200z"/>
<path d="M1370 650 l0 -200 205 0 205 0 0 200 0 200 -205 0 -205 0 0 -200z"/>
<path d="M1840 650 l0 -200 200 0 200 0 0 200 0 200 -200 0 -200 0 0 -200z"/>
<path d="M2290 650 l0 -200 205 0 205 0 0 200 0 200 -205 0 -205 0 0 -200z"/>
<path d="M2750 650 l0 -200 205 0 205 0 0 200 0 200 -205 0 -205 0 0 -200z"/>
<path d="M3210 650 l0 -200 203 2 202 3 3 198 2 197 -205 0 -205 0 0 -200z"/>
<path d="M3670 650 l0 -200 205 0 205 0 0 200 0 200 -205 0 -205 0 0 -200z"/>
<path d="M4130 650 l0 -200 200 0 200 0 0 200 0 200 -200 0 -200 0 0 -200z"/>
<path d="M4590 650 l0 -200 205 0 205 0 0 200 0 200 -205 0 -205 0 0 -200z"/>
<path d="M5050 650 l0 -200 200 0 200 0 0 200 0 200 -200 0 -200 0 0 -200z"/>
<path d="M5510 650 l0 -200 203 2 202 3 3 198 2 197 -205 0 -205 0 0 -200z"/>
<path d="M5970 650 l0 -200 200 0 200 0 0 200 0 200 -200 0 -200 0 0 -200z"/>
<path d="M6430 650 l0 -200 200 0 200 0 0 200 0 200 -200 0 -200 0 0 -200z"/>
<path d="M6882 653 l3 -198 203 -3 202 -2 0 200 0 200 -205 0 -205 0 2 -197z"/>
<path d="M7350 650 l0 -200 200 0 200 0 0 200 0 200 -200 0 -200 0 0 -200z"/>
<path d="M7800 650 l0 -200 205 0 205 0 0 200 0 200 -205 0 -205 0 0 -200z"/>
<path d="M8260 650 l0 -200 205 0 205 0 0 200 0 200 -205 0 -205 0 0 -200z"/>
<path d="M8720 650 l0 -200 205 0 205 0 0 200 0 200 -205 0 -205 0 0 -200z"/>
<path d="M9180 650 l0 -200 205 0 205 0 0 200 0 200 -205 0 -205 0 0 -200z"/>
<path d="M9640 650 l0 -200 200 0 200 0 0 200 0 200 -200 0 -200 0 0 -200z"/>
<path d="M10100 650 l0 -200 205 0 205 0 0 200 0 200 -205 0 -205 0 0 -200z"/>
<path d="M10560 650 l0 -200 200 0 200 0 0 200 0 200 -200 0 -200 0 0 -200z"/>
<path d="M11020 650 l0 -200 205 0 205 0 0 200 0 200 -205 0 -205 0 0 -200z"/>
<path d="M11480 650 l0 -200 200 0 200 0 0 200 0 200 -200 0 -200 0 0 -200z"/>
<path d="M11940 650 l0 -200 200 0 200 0 0 200 0 200 -200 0 -200 0 0 -200z"/>
<path d="M12390 650 l0 -200 205 0 205 0 0 200 0 200 -205 0 -205 0 0 -200z"/>
<path d="M0 205 l0 -205 205 0 205 0 -2 203 -3 202 -202 3 -203 2 0 -205z"/>
<path d="M920 205 l0 -205 200 0 200 0 0 205 0 205 -200 0 -200 0 0 -205z"/>
<path d="M1377 403 c-4 -3 -7 -96 -7 -205 l0 -198 205 0 205 0 0 205 0 205
-198 0 c-109 0 -202 -3 -205 -7z"/>
<path d="M1840 205 l0 -205 200 0 200 0 0 205 0 205 -200 0 -200 0 0 -205z"/>
<path d="M2297 404 c-4 -4 -7 -97 -7 -206 l0 -198 205 0 205 0 -2 203 -3 202
-196 3 c-107 1 -198 -1 -202 -4z"/>
<path d="M2757 404 c-4 -4 -7 -97 -7 -206 l0 -198 205 0 205 0 -2 203 -3 202
-196 3 c-107 1 -198 -1 -202 -4z"/>
<path d="M3217 404 c-4 -4 -7 -97 -7 -206 l0 -198 205 0 205 0 -2 203 -3 202
-196 3 c-107 1 -198 -1 -202 -4z"/>
<path d="M3677 404 c-4 -4 -7 -97 -7 -206 l0 -198 205 0 205 0 -2 203 -3 202
-196 3 c-107 1 -198 -1 -202 -4z"/>
<path d="M4130 205 l0 -205 200 0 200 0 0 205 0 205 -200 0 -200 0 0 -205z"/>
<path d="M4597 404 c-4 -4 -7 -97 -7 -206 l0 -198 205 0 205 0 -2 203 -3 202
-196 3 c-107 1 -198 -1 -202 -4z"/>
<path d="M5050 205 l0 -205 200 0 200 0 0 205 0 205 -200 0 -200 0 0 -205z"/>
<path d="M5517 404 c-4 -4 -7 -97 -7 -206 l0 -198 205 0 205 0 -2 203 -3 202
-196 3 c-107 1 -198 -1 -202 -4z"/>
<path d="M5970 205 l0 -205 200 0 200 0 0 205 0 205 -200 0 -200 0 0 -205z"/>
<path d="M6430 205 l0 -205 200 0 200 0 0 205 0 205 -200 0 -200 0 0 -205z"/>
<path d="M6887 404 c-4 -4 -7 -97 -7 -206 l0 -198 205 0 205 0 -2 203 -3 202
-196 3 c-107 1 -198 -1 -202 -4z"/>
<path d="M7350 205 l0 -205 200 0 200 0 -2 203 -3 202 -197 3 -198 2 0 -205z"/>
<path d="M8267 404 c-4 -4 -7 -97 -7 -206 l0 -198 205 0 205 0 -2 203 -3 202
-196 3 c-107 1 -198 -1 -202 -4z"/>
<path d="M8727 404 c-4 -4 -7 -97 -7 -206 l0 -198 205 0 205 0 -2 203 -3 202
-196 3 c-107 1 -198 -1 -202 -4z"/>
<path d="M9187 404 c-4 -4 -7 -97 -7 -206 l0 -198 205 0 205 0 -2 203 -3 202
-196 3 c-107 1 -198 -1 -202 -4z"/>
<path d="M9640 205 l0 -205 200 0 200 0 0 205 0 205 -200 0 -200 0 0 -205z"/>
<path d="M10107 404 c-4 -4 -7 -97 -7 -206 l0 -198 205 0 205 0 -2 203 -3 202
-196 3 c-107 1 -198 -1 -202 -4z"/>
<path d="M10560 205 l0 -205 200 0 200 0 0 205 0 205 -200 0 -200 0 0 -205z"/>
<path d="M11020 205 l0 -205 205 0 205 0 -2 203 -3 202 -202 3 -203 2 0 -205z"/>
<path d="M11480 205 l0 -205 200 0 200 0 0 205 0 205 -200 0 -200 0 0 -205z"/>
<path d="M11940 205 l0 -205 200 0 200 0 0 205 0 205 -200 0 -200 0 0 -205z"/>
<path d="M12397 403 c-4 -3 -7 -96 -7 -205 l0 -198 205 0 205 0 0 205 0 205
-198 0 c-109 0 -202 -3 -205 -7z"/>
</g>
</svg>
